<?xml version="1.0" encoding="UTF-8" standalone="no"?>
<!-- Generator: Adobe Illustrator 14.0.0, SVG Export Plug-In  -->

<svg
   xmlns:dc="http://purl.org/dc/elements/1.1/"
   xmlns:cc="http://creativecommons.org/ns#"
   xmlns:rdf="http://www.w3.org/1999/02/22-rdf-syntax-ns#"
   xmlns:svg="http://www.w3.org/2000/svg"
   xmlns="http://www.w3.org/2000/svg"
   xmlns:sodipodi="http://sodipodi.sourceforge.net/DTD/sodipodi-0.dtd"
   xmlns:inkscape="http://www.inkscape.org/namespaces/inkscape"
   version="1.1"
   x="0px"
   y="0px"
   viewBox="-0.866 -0.866 703.91516 481.71283"
   enable-background="new -0.866 -0.866 285 285"
   xml:space="preserve"
   id="svg3951"
   inkscape:version="0.48.5 r10040"
   sodipodi:docname="snippets.svg"><metadata
     id="metadata3961"><rdf:RDF><cc:Work
         rdf:about=""><dc:format>image/svg+xml</dc:format><dc:type
           rdf:resource="http://purl.org/dc/dcmitype/StillImage" /><dc:title></dc:title></cc:Work></rdf:RDF></metadata><sodipodi:namedview
     pagecolor="#ffffff"
     bordercolor="#666666"
     borderopacity="1"
     objecttolerance="10"
     gridtolerance="10"
     guidetolerance="10"
     inkscape:pageopacity="0"
     inkscape:pageshadow="2"
     inkscape:window-width="1615"
     inkscape:window-height="1026"
     id="namedview3959"
     showgrid="false"
     fit-margin-top="0"
     fit-margin-left="0"
     fit-margin-right="0"
     fit-margin-bottom="0"
     inkscape:zoom="0.82807018"
     inkscape:cx="509.25653"
     inkscape:cy="336.8633"
     inkscape:window-x="65"
     inkscape:window-y="24"
     inkscape:window-maximized="1"
     inkscape:current-layer="svg3951" /><defs
     id="defs3953"><marker
       inkscape:stockid="DotL"
       orient="auto"
       refY="0"
       refX="0"
       id="DotL"
       style="overflow:visible"><path
         id="path5105"
         d="m -2.5,-1 c 0,2.76 -2.24,5 -5,5 -2.76,0 -5,-2.24 -5,-5 0,-2.76 2.24,-5 5,-5 2.76,0 5,2.24 5,5 z"
         style="fill-rule:evenodd;stroke:#000000;stroke-width:1pt"
         transform="matrix(0.8,0,0,0.8,5.92,0.8)"
         inkscape:connector-curvature="0" /></marker></defs><path
     inkscape:connector-curvature="0"
     id="path5731"
     d="m 503.07641,335.01137 c 0,0 6.17695,-98.88852 -120.83946,-197.88438"
     style="fill:none;stroke:#aea79f;stroke-width:4.94974422;stroke-linecap:butt;stroke-linejoin:round;stroke-miterlimit:4;stroke-opacity:0.94117647;stroke-dasharray:4.94974427, 9.89948854;stroke-dashoffset:0;marker-mid:none" /><path
     style="color:#000000;fill:none;stroke:#aea79f;stroke-width:4.71752691;stroke-linecap:butt;stroke-linejoin:round;stroke-miterlimit:4;stroke-opacity:0.94117647;stroke-dasharray:4.71752708, 9.43505417;stroke-dashoffset:0;marker:none;visibility:visible;display:inline;overflow:visible;enable-background:accumulate"
     d="M 609.94525,67.46178 431.54158,145.63239"
     id="path5712"
     inkscape:connector-curvature="0" /><path
     style="fill:none;stroke:#aea79f;stroke-width:5.5999999;stroke-linecap:butt;stroke-linejoin:round;stroke-miterlimit:4;stroke-opacity:0.94117647;stroke-dasharray:5.5999999, 11.19999981;stroke-dashoffset:0;marker-mid:none"
     d="m 424.93736,160.9848 c 0,0 -119.91391,36.41107 -206.12831,203.19148"
     id="path4530-6"
     inkscape:connector-curvature="0" /><path
     style="fill:none;stroke:#aea79f;stroke-width:5.5999999;stroke-linecap:butt;stroke-linejoin:round;stroke-miterlimit:4;stroke-opacity:0.94117647;stroke-dasharray:5.5999999, 11.19999981;stroke-dashoffset:0;marker-mid:none"
     d="m 376.43197,143.98352 c 0,0 -106.27118,-66.41949 -288.622875,-21.73729"
     id="path4530"
     inkscape:connector-curvature="0" /><path
     id="path4360"
     d="m 251.55698,-867.18757 c 0,1.947 -1.58,3.532 -3.525,3.532 -1.952,0 -3.534,-1.585 -3.534,-3.532 0,-1.949 1.582,-3.526 3.534,-3.526 1.945,-10e-4 3.525,1.576 3.525,3.526 z m 56.45,24.722 v 12.358 c 0,3.898 -3.16,7.06 -7.06,7.06 -3.896,0 -7.062,-3.16 -7.062,-7.06 0,-2.318 -1.5,-4.289 -3.578,-5.007 -1.256,18.927 -11.788,36.146 -28.114,45.576 1.084,0.002 2.1,0.251 3.011,0.688 2.413,1.117 4.085,3.559 4.092,6.394 0.006,3.661 -2.779,6.685 -6.359,7.037 h -0.006 c -0.187,0.017 -0.379,0.032 -0.567,0.032 h -0.007 -0.012 -0.013 c -0.024,0 -0.041,0 -0.063,0.002 h -0.062 -0.037 -56.382 -0.103 c -3.894,-0.021 -7.033,-3.182 -7.027,-7.071 0.01,-3.894 3.169,-7.046 7.059,-7.046 h 0.031 c -0.003,-0.002 -0.014,-0.039 -0.022,-0.053 -16.325,-9.459 -26.84,-26.684 -28.095,-45.588 -2.12,0.694 -3.654,2.689 -3.654,5.035 0,3.897 -3.163,7.059 -7.062,7.059 -3.9,0 -7.058,-3.16 -7.058,-7.059 v -12.36 c 0,-1.873 0.743,-3.669 2.066,-4.992 1.324,-1.325 3.121,-2.069 4.991,-2.069 h 0.002 l 11.584,0.006 c 4.967,-26.101 27.948,-45.895 55.469,-45.895 27.521,0 50.508,19.794 55.477,45.895 l 11.5,-0.006 h 0.003 c 1.871,0 3.664,0.744 4.991,2.069 1.322,1.326 2.067,3.123 2.067,4.995 z m -70.532,-0.088 c 0,-1.951 -1.58,-3.531 -3.521,-3.531 -1.952,0 -3.534,1.58 -3.534,3.531 v 10.589 c 0,1.945 1.582,3.525 3.534,3.525 1.941,0 3.521,-1.58 3.521,-3.525 v -10.589 z m 31.741,-24.654 c 0,-11.208 -9.476,-20.294 -21.168,-20.294 -5.421,0 -10.358,1.95 -14.104,5.159 -3.745,-3.209 -8.688,-5.159 -14.1,-5.159 -11.698,0 -21.182,9.086 -21.182,20.294 0,11.207 9.484,20.295 21.182,20.295 5.413,0 10.355,-1.954 14.1,-5.162 3.745,3.208 8.683,5.162 14.104,5.162 11.692,0 21.168,-9.088 21.168,-20.295 z m -49.391,-3.507 c -1.951,0 -3.53,1.577 -3.53,3.526 0,1.947 1.58,3.532 3.53,3.532 1.949,0 3.527,-1.585 3.527,-3.532 0,-1.949 -1.578,-3.526 -3.527,-3.526 z"
     inkscape:connector-curvature="0"
     style="fill:#dd4814" /><g
     id="g4526"
     transform="matrix(0.87219254,0,0,0.87219254,239.15342,-562.00174)"><path
       id="path3955"
       d="m 355.33834,809.55204 c 0,78.273 -63.457,141.73 -141.734,141.73 -78.277,0 -141.730999,-63.456 -141.730999,-141.73 0,-78.279 63.452999,-141.734 141.729999,-141.734 78.277,0 141.735,63.455 141.735,141.734 z"
       inkscape:connector-curvature="0"
       style="fill:#dd4814" /><path
       id="path3957"
       d="m 117.22934,790.63004 c -10.453,0 -18.922999,8.47 -18.922999,18.923 0,10.449 8.469999,18.92 18.922999,18.92 10.449,0 18.92,-8.471 18.92,-18.92 0,-10.454 -8.47,-18.923 -18.92,-18.923 z m 135.107,86.002 c -9.051,5.225 -12.149,16.793 -6.926,25.84 5.226,9.051 16.793,12.151 25.844,6.926 9.048,-5.224 12.148,-16.792 6.923,-25.842 -5.224,-9.047 -16.793,-12.148 -25.841,-6.924 z m -94.005,-67.082 c 0,-18.701 9.293,-35.219 23.504,-45.221 l -13.834,-23.173 c -16.56,11.064 -28.878,27.978 -33.995,47.788 5.977,4.872 9.796,12.291 9.796,20.608 0,8.315 -3.819,15.734 -9.797,20.605 5.116,19.812 17.435,36.726 33.995,47.789 l 13.835,-23.175 c -14.211,-10 -23.504,-26.517 -23.504,-45.221 z m 55.275,-55.275 c 28.877,0 52.564,22.141 55.047,50.373 l 26.968,-0.394 c -1.327,-20.844 -10.432,-39.562 -24.425,-53.319 -7.194,2.718 -15.505,2.306 -22.688,-1.842 -7.192,-4.152 -11.705,-11.156 -12.941,-18.757 -6.992,-1.935 -14.351,-2.99 -21.96,-2.99 -13.086,0 -25.449,3.072 -36.431,8.512 l 13.146,23.56 c 7.077,-3.293 14.963,-5.143 23.284,-5.143 z m 0,110.551 c -8.322,0 -16.207,-1.85 -23.285,-5.143 l -13.148,23.562 c 10.983,5.438 23.347,8.511 36.433,8.511 7.609,0 14.968,-1.055 21.961,-2.99 1.236,-7.601 5.75,-14.605 12.943,-18.76 7.183,-4.146 15.494,-4.558 22.688,-1.839 13.992,-13.758 23.097,-32.476 24.422,-53.32 l -26.968,-0.394 c -2.481,28.236 -26.169,50.373 -55.046,50.373 z m 38.727,-122.359 c 9.05,5.227 20.619,2.126 25.842,-6.921 5.226,-9.051 2.128,-20.619 -6.923,-25.845 -9.049,-5.224 -20.617,-2.124 -25.843,6.927 -5.224,9.047 -2.124,20.616 6.924,25.839 z"
       inkscape:connector-curvature="0"
       style="fill:#ffffff" /></g><g
     id="g5683"
     transform="translate(161.13272,-625.61658)"><path
       transform="matrix(4.216809,0,0,4.216809,-451.91852,376.76221)"
       d="m 111.96607,86.716408 c 0,11.932861 -9.67349,21.606352 -21.606352,21.606352 -11.93286,0 -21.606355,-9.673491 -21.606355,-21.606352 0,-11.932861 9.673495,-21.606356 21.606355,-21.606356 11.932862,0 21.606352,9.673495 21.606352,21.606356 z"
       sodipodi:ry="21.606356"
       sodipodi:rx="21.606356"
       sodipodi:cy="86.716408"
       sodipodi:cx="90.359718"
       id="path3051"
       style="fill:#aea79f;fill-opacity:0.94117647"
       sodipodi:type="arc" /><g
       id="g5674"><path
         style="fill:none;stroke:#ffffff;stroke-width:16.72336578;stroke-linecap:round;stroke-linejoin:miter;stroke-miterlimit:4;stroke-opacity:1;stroke-dasharray:none"
         d="M -55.797767,683.76396 -86.371778,801.09354"
         id="path3847"
         inkscape:connector-curvature="0" /><g
         id="g3855"
         transform="matrix(1.4473069,0,0,1.4597837,-278.68286,538.56739)"
         style="fill:none;stroke:#ffffff;stroke-width:11.49869728;stroke-linecap:round;stroke-miterlimit:4;stroke-opacity:1;stroke-dasharray:none"><path
           style="fill:none;stroke:#ffffff;stroke-width:11.49869728;stroke-linecap:round;stroke-linejoin:miter;stroke-miterlimit:4;stroke-opacity:1;stroke-dasharray:none"
           d="M 121.2097,121.80561 97.022902,139.65175"
           id="path3831"
           inkscape:connector-curvature="0" /><path
           inkscape:connector-curvature="0"
           id="path3849"
           d="M 120.98251,157.49789 96.79571,139.65175"
           style="fill:none;stroke:#ffffff;stroke-width:11.49869728;stroke-linecap:round;stroke-linejoin:miter;stroke-miterlimit:4;stroke-opacity:1;stroke-dasharray:none" /></g><g
         transform="matrix(-1.4473069,0,0,1.4597837,136.90519,538.56739)"
         id="g3859"
         style="fill:none;stroke:#ffffff;stroke-width:11.49869728;stroke-linecap:round;stroke-miterlimit:4;stroke-opacity:1;stroke-dasharray:none"><path
           inkscape:connector-curvature="0"
           id="path3861"
           d="M 121.2097,121.80561 97.022902,139.65175"
           style="fill:none;stroke:#ffffff;stroke-width:11.49869728;stroke-linecap:round;stroke-linejoin:miter;stroke-miterlimit:4;stroke-opacity:1;stroke-dasharray:none" /><path
           style="fill:none;stroke:#ffffff;stroke-width:11.49869728;stroke-linecap:round;stroke-linejoin:miter;stroke-miterlimit:4;stroke-opacity:1;stroke-dasharray:none"
           d="M 120.98251,157.49789 96.79571,139.65175"
           id="path3863"
           inkscape:connector-curvature="0" /></g></g></g><path
     id="path4192"
     d="m 647.56378,-0.866 c -30.64502,0 -55.48538,24.84033 -55.48538,55.48635 0,30.64406 24.84036,55.48445 55.48538,55.48445 30.64503,0 55.48539,-24.84134 55.48539,-55.48445 C 703.04985,23.97433 678.20881,-0.866 647.56378,-0.866 z m 24.96857,89.53534 c 0,2.50645 -2.03374,4.5382 -4.54116,4.5382 h -40.85677 c -2.50645,0 -4.54019,-2.03175 -4.54019,-4.5382 V 20.57142 c 0,-2.50645 2.03374,-4.5392 4.54019,-4.5392 h 40.85677 c 2.50742,0 4.54116,2.03373 4.54116,4.5392 v 68.09792 z m -24.96857,2.01511 c -2.29407,0 -4.16338,-1.86438 -4.16338,-4.15945 0,-2.29412 1.86931,-4.15952 4.16338,-4.15952 2.29407,0 4.16339,1.8654 4.16339,4.15952 0,2.29507 -1.86932,4.15945 -4.16339,4.15945 z m 20.42741,-65.04536 v 52.20875 c 0,1.25275 -1.01491,2.27059 -2.26863,2.27059 H 629.405 c -1.25274,0 -2.26961,-1.01784 -2.26961,-2.27059 V 25.63909 c 0,-1.25369 1.01687,-2.27058 2.26961,-2.27058 h 36.31756 c 1.25372,0 2.26863,1.01689 2.26863,2.27058 z m -16.26402,-5.00404 h -8.32677 c -0.38267,0 -0.69195,-0.3093 -0.69195,-0.69196 0,-0.38462 0.30928,-0.69389 0.69195,-0.69389 h 8.32677 c 0.38267,0 0.69194,0.31024 0.69194,0.69389 0,0.38172 -0.30927,0.69196 -0.69194,0.69196 z"
     inkscape:connector-curvature="0"
     style="fill:#333333;fill-opacity:1" /><path
     id="path4410"
     d="m 198.32805,455.06932 c -15.46557,0 -30.00584,-6.0226 -40.94092,-16.9597 -10.93712,-10.9351 -16.96076,-25.4733 -16.96076,-40.9379 0,-15.4655 6.02364,-30.00481 16.96076,-40.94191 10.9361,-10.9361 25.47535,-16.95874 40.94092,-16.95874 15.46557,0 30.00481,6.02264 40.94092,16.95874 10.93406,10.9361 16.9577,25.47531 16.9577,40.94191 0,15.4656 -6.02262,30.0049 -16.9577,40.9399 -10.93611,10.9321 -25.47535,16.9577 -40.94092,16.9577 l 0,0 z m 0,-101.32541 c -11.59892,0 -22.50438,4.5172 -30.70646,12.7193 -8.20309,8.20311 -12.72133,19.10761 -12.72133,30.70651 0,11.5979 4.51824,22.5023 12.72133,30.7044 8.20208,8.2031 19.10754,12.7193 30.70646,12.7193 11.59892,0 22.50335,-4.5162 30.70544,-12.7183 8.20309,-8.201 12.71929,-19.1065 12.71929,-30.7054 0,-11.6 -4.5162,-22.5054 -12.71929,-30.70651 -8.20209,-8.2021 -19.10652,-12.7193 -30.70544,-12.7193 l 0,0 z m 25.60913,23.16321 c -3.24467,-3.24271 -7.55558,-5.02891 -12.14429,-5.02891 -4.58871,0 -8.90166,1.7872 -12.14634,5.03091 -0.48614,0.4851 -0.93653,0.9947 -1.35527,1.5279 -0.41771,-0.5321 -0.86912,-1.0428 -1.35424,-1.5269 -3.24366,-3.24471 -7.55764,-5.03091 -12.14532,-5.03091 -4.58769,0 -8.90065,1.7862 -12.14532,5.02991 -6.69566,6.6967 -6.69566,17.594 -0.0123,24.2774 l 23.05078,23.2795 c 0.67917,0.6853 1.60345,1.0714 2.56858,1.0714 0.001,0 0.002,0 0.003,0 0.96309,0 1.88941,-0.384 2.56755,-1.0683 l 23.11103,-23.2704 c 6.69771,-6.6977 6.69771,-17.595 0.002,-24.2916 z"
     inkscape:connector-curvature="0"
     style="fill:#dd4814" /><path
     id="path4460"
     d="m 611.60286,368.4168 c -5.86528,-5.83024 -13.65744,-9.03904 -21.92694,-9.03904 -17.15521,0 -31.11118,13.95604 -31.11118,31.10966 0,4.6839 3.7995,8.485 8.48502,8.485 4.68392,0 8.48341,-3.8027 8.48341,-8.485 0,-7.7986 6.3458,-14.1412 14.13956,-14.1412 3.75959,0 7.30206,1.4608 9.96969,4.1108 3.32536,3.303 8.69734,3.2855 11.99716,-0.04 3.3062,-3.3253 3.29023,-8.69732 -0.0367,-12.00032 z m -44.53714,27.72352 c -3.12261,0 -5.65774,-2.5319 -5.65774,-5.6561 0,-3.1226 2.53513,-5.6561 5.65774,-5.6561 3.12261,0 5.65614,2.5335 5.65614,5.6561 0,3.1242 -2.53353,5.6561 -5.65614,5.6561 z m 38.86663,39.5419 c -15.66255,27.0036 -44.88356,45.1646 -78.34948,45.1646 -49.98414,0 -90.50467,-40.5206 -90.50467,-90.5079 0,-49.98574 40.52053,-90.50627 90.50467,-90.50627 33.50742,0 62.76036,18.20885 78.40854,45.2683 l 0.01,-0.016 -92.65985,0.016 c -4.68711,0 -8.48341,3.80269 -8.48341,8.48505 0,4.6887 3.7979,8.48336 8.48341,8.48336 h 41.0266 c -1.87581,2.3388 -3.52332,4.86754 -4.91062,7.54794 v 0 h -36.11598 c -4.68711,0 -8.48341,3.8027 -8.48341,8.48342 0,4.6903 3.7979,8.485 8.48341,8.485 h 31.2389 c -0.10217,1.2373 -0.15645,2.4905 -0.15645,3.7532 0,1.2788 0.0559,2.5463 0.15964,3.7947 l 0,0 h -31.24209 c -4.68711,0 -8.48341,3.7979 -8.48341,8.4835 0,4.6854 3.7979,8.4833 8.48341,8.4833 h 36.13514 v 0 c 1.38889,2.6884 3.04439,5.2172 4.92658,7.5527 h -41.06172 c -4.68711,0 -8.48341,3.7963 -8.48341,8.485 0,4.684 3.7979,8.4819 8.48341,8.4819 H 605.829 l 0.10377,0.072 z"
     inkscape:connector-curvature="0"
     style="fill:#5e2750;fill-opacity:1" /></svg>
